<svg id="Capa_1" data-name="Capa 1" xmlns="http://www.w3.org/2000/svg" viewBox="0 0 200 120"><defs><style>.cls-1{fill:#e6e6e6;}</style></defs><title>frameset-bg</title><path class="cls-1" d="M17.89,95.92v4a1.88,1.88,0,0,1-.55,1.24,11.31,11.31,0,0,1-1,.86h-1s-.44,0,0-.84c0,0-1-.52,0-2.23,0,0,.18-.28-.13-2.14s-.58-2.22.86-4.14S63.55,35.06,63.55,35.06a4.75,4.75,0,0,0,1.1-2.18,47.65,47.65,0,0,0-1.47-5.55S65.64,26,72.35,25s53.19-7.39,53.19-7.39,4.4-.47,14.15-4.35,10.43-4.14,11.4-3.93,1.34,1.59,2.2,4.24,5.27,16,7.26,23.46c0,0,1.57.13,5.22,8.7s18.87,44.77,18.87,44.77a4.11,4.11,0,0,1,.44,1.75c0,1,0,1.89-.39,1.89H184s-.69,0-.71-1-.11-1.11-.37-1.11-.39,0-.39.48v.78s.08,1-.29,1-.84,0-1.76-2.07-24.84-49.62-24.84-49.62-1.31-3.09-3.41-3.09-5.9,3.85-7,5.08-47.16,57.82-47.16,57.82a28.48,28.48,0,0,1-4.4,6.84c-2.36,2.36-7.39,1.18-7.39,1.18L21.11,98.22s-1.22-.25-1.35-1.33-.87-2-1.28-2S17.89,95.09,17.89,95.92Zm71.79,5.49a3.7,3.7,0,1,0,3.69,3.69A3.7,3.7,0,0,0,89.68,101.41Zm-16,1.41s4.68.83,6.6-.31a12.15,12.15,0,0,0,3.19-2.83s1.25-1.42.19-4.6-17-55.63-17-55.63-.28-1-1-1-1.18.48-2,1.54-42.26,50-42.26,50-1.06.9-1.06,1.69.31,1.37,1.69,2.32,6,1.69,6,1.69Zm18.59-7a2.9,2.9,0,0,0,2.56-1.14s45.6-56.54,48.91-60.55,3.22-4.6,3.58-5.78a8,8,0,0,0-.52-4.28c-.43-1.18-.82-2.76-1.88-3.54s-5.27,0-5.27,0S84.14,28.05,76.74,29s-5.5,5-5.5,5L89.88,92.7S90.43,95.79,92.31,95.79Z"/></svg>